<svg width="16" height="13" viewBox="0 0 16 13" fill="none" xmlns="http://www.w3.org/2000/svg">
<path d="M13.6 0.286133H2.4C1.76348 0.286133 1.15303 0.538989 0.702944 0.989077C0.252856 1.43916 0 2.04961 0 2.68613V9.88613C0 10.5227 0.252856 11.1331 0.702944 11.5832C1.15303 12.0333 1.76348 12.2861 2.4 12.2861H13.6C14.2365 12.2861 14.847 12.0333 15.2971 11.5832C15.7471 11.1331 16 10.5227 16 9.88613V2.68613C16 2.04961 15.7471 1.43916 15.2971 0.989077C14.847 0.538989 14.2365 0.286133 13.6 0.286133ZM14.4 9.88613C14.4 10.0983 14.3157 10.3018 14.1657 10.4518C14.0157 10.6018 13.8122 10.6861 13.6 10.6861H2.4C2.18783 10.6861 1.98434 10.6018 1.83431 10.4518C1.68429 10.3018 1.6 10.0983 1.6 9.88613V5.08613H14.4V9.88613ZM14.4 3.48613H1.6V2.68613C1.6 2.47396 1.68429 2.27048 1.83431 2.12045C1.98434 1.97042 2.18783 1.88613 2.4 1.88613H13.6C13.8122 1.88613 14.0157 1.97042 14.1657 2.12045C14.3157 2.27048 14.4 2.47396 14.4 2.68613V3.48613Z" fill="#8A8A8A"/>
</svg>
