<svg width="17" height="17" viewBox="0 0 17 17" fill="none" xmlns="http://www.w3.org/2000/svg">
<path d="M8.5 0C3.80574 0 0 3.80441 0 8.5C0 13.1956 3.80574 17 8.5 17C13.1943 17 17 13.1933 17 8.5C17 3.80674 13.1943 0 8.5 0Z" fill="#2AD352"/>
<path d="M-6.84002e-05 8.50001C-0.00198718 9.90499 0.345932 11.2883 1.01229 12.5252C1.86126 12.7745 2.74158 12.9007 3.62638 12.9001C8.73634 12.9001 12.8788 8.75767 12.8788 3.64771C12.8795 2.74888 12.7493 1.85474 12.4923 0.993449C11.2635 0.338923 9.89217 -0.00230674 8.49993 1.1736e-05C3.80567 1.1736e-05 -6.84002e-05 3.80443 -6.84002e-05 8.50001Z" fill="#74DA7F"/>
<path d="M13.3476 7.09131L8.23867 12.4566C8.09944 12.6027 7.93216 12.7191 7.74686 12.799C7.56155 12.8789 7.36202 12.9205 7.16024 12.9214H7.1536C6.95293 12.9215 6.7543 12.8812 6.5695 12.803C6.3847 12.7248 6.21749 12.6103 6.07782 12.4662L3.36678 9.67385C3.2267 9.53324 3.11595 9.36622 3.04094 9.18246C2.96594 8.99871 2.92818 8.80189 2.92985 8.60342C2.93152 8.40496 2.97259 8.2088 3.05068 8.02634C3.12878 7.84387 3.24233 7.67873 3.38475 7.54051C3.52718 7.40228 3.69564 7.29372 3.88036 7.22112C4.06508 7.14853 4.26238 7.11334 4.4608 7.11761C4.65923 7.12187 4.85483 7.16551 5.03626 7.24598C5.21769 7.32645 5.38133 7.44215 5.51768 7.58637L7.14297 9.26047L11.1768 5.02442C11.3119 4.87952 11.4745 4.76286 11.655 4.68117C11.8355 4.59948 12.0304 4.55439 12.2284 4.54851C12.4265 4.54263 12.6237 4.57607 12.8087 4.6469C12.9938 4.71774 13.1629 4.82455 13.3064 4.96117C13.4499 5.09779 13.5649 5.26151 13.6447 5.44285C13.7245 5.62419 13.7676 5.81955 13.7714 6.01764C13.7753 6.21573 13.7398 6.41262 13.667 6.59691C13.5943 6.7812 13.4857 6.94924 13.3476 7.09131Z" fill="white"/>
</svg>
